<svg width="12" height="10" viewBox="0 0 12 10" fill="none" xmlns="http://www.w3.org/2000/svg">
<path fill-rule="evenodd" clip-rule="evenodd" d="M10.4933 0.0684131C10.6372 0.00783696 10.7947 -0.0130553 10.9494 0.00791049C11.1042 0.0288763 11.2505 0.090934 11.3731 0.187624C11.4957 0.284314 11.5902 0.412102 11.6466 0.557687C11.7031 0.703272 11.7195 0.861332 11.6942 1.01542L10.3733 9.02766C10.2451 9.80052 9.39715 10.2437 8.68836 9.85876C8.09546 9.53669 7.21486 9.04047 6.42278 8.52271C6.02674 8.26353 4.81357 7.4336 4.96267 6.84303C5.0908 6.33808 7.12924 4.44058 8.29407 3.31245C8.75126 2.86923 8.54276 2.61355 8.00286 3.02124C6.66215 4.03347 4.50955 5.57279 3.79784 6.0061C3.17 6.38817 2.84269 6.4534 2.45131 6.38817C1.73727 6.26935 1.07507 6.08531 0.534589 5.86108C-0.195756 5.55823 -0.160229 4.55415 0.534007 4.26178L10.4933 0.0684131Z" fill="white"/>
</svg>
