<svg width="16" height="12" viewBox="0 0 16 12" fill="none" xmlns="http://www.w3.org/2000/svg">
<path d="M0.75 5.75C0.75 3.39286 0.75 2.21429 1.79571 1.48214C2.84286 0.75 4.52571 0.75 7.89286 0.75C11.26 0.75 12.9436 0.75 13.9893 1.48214C15.035 2.21429 15.0357 3.39286 15.0357 5.75C15.0357 8.10714 15.0357 9.28571 13.9893 10.0179C12.9443 10.75 11.26 10.75 7.89286 10.75C4.52571 10.75 2.84214 10.75 1.79571 10.0179C0.749286 9.28571 0.75 8.10714 0.75 5.75Z" stroke="white" stroke-width="1.5" stroke-linecap="round" stroke-linejoin="round"/>
<path d="M6.82141 4.25573V7.2443C6.8216 7.28276 6.82936 7.3208 6.84425 7.35626C6.85914 7.39172 6.88087 7.4239 6.9082 7.45097C6.93553 7.47803 6.96792 7.49944 7.00352 7.51398C7.03912 7.52853 7.07724 7.53592 7.1157 7.53573C7.17366 7.53643 7.23046 7.51949 7.27856 7.48716L9.54641 6.00573C9.58677 5.97961 9.61997 5.94384 9.64303 5.90167C9.66609 5.85949 9.67828 5.81223 9.67849 5.76417C9.67871 5.7161 9.66694 5.66874 9.64425 5.62636C9.62156 5.58398 9.58868 5.54792 9.54856 5.52144L7.2807 4.0143C7.21587 3.9709 7.13654 3.95481 7.05992 3.96952C6.9833 3.98423 6.91557 4.02855 6.87141 4.09287C6.83857 4.14081 6.82113 4.19762 6.82141 4.25573Z" stroke="white" stroke-width="1.5" stroke-linecap="round" stroke-linejoin="round"/>
</svg>
